<svg width="360" height="34" viewBox="0 0 360 34" fill="none" xmlns="http://www.w3.org/2000/svg">
<path d="M66.6123 33.5028H49.9171V0.348633H66.6123V33.5028ZM33.3905 2.88595C33.3905 2.88595 31.3668 6.94565 31.0295 7.28395C30.6922 7.79142 30.5236 7.79142 30.0177 7.62226C29.5118 7.28395 27.8254 6.43818 27.8254 6.43818C27.8254 6.43818 29.3431 13.0352 29.3431 13.5427C29.5118 14.0501 29.0059 14.5576 28.3313 14.0501C28.1627 13.881 25.2958 10.667 25.2958 10.667C25.2958 10.667 24.6213 12.1894 24.4526 12.5277C24.284 12.866 24.1153 13.0352 23.7781 12.866C23.2721 12.6969 20.5739 12.1894 20.5739 12.1894C20.5739 12.1894 21.5858 15.4034 21.7544 15.9108C21.923 16.2491 22.0917 16.5874 21.4171 16.9257L20.4053 17.2641C20.4053 17.2641 25.9704 22.1695 26.139 22.3387C26.4763 22.677 26.6449 22.677 26.4763 23.5228C26.139 24.3685 25.9704 25.3835 25.9704 25.3835C25.9704 25.3835 31.1982 24.1994 31.7041 24.1994C32.21 24.1994 32.7159 24.3685 32.7159 24.876C32.7159 25.3835 32.3786 31.1347 32.3786 31.1347H34.065C34.065 31.1347 33.7277 25.5526 33.7277 24.876C33.7277 24.3685 34.2337 24.1994 34.7396 24.1994C35.2455 24.3685 40.4733 25.3835 40.4733 25.3835C40.4733 25.3835 40.136 24.1994 39.9674 23.5228C39.6301 22.677 39.9674 22.5078 40.3047 22.3387C40.4733 22.1695 46.0384 17.2641 46.0384 17.2641L45.0265 16.9257C44.5206 16.5874 44.6893 16.2491 44.6893 15.9108C44.8579 15.5725 45.8697 12.1894 45.8697 12.1894C45.8697 12.1894 43.1715 12.6969 42.6656 12.866C42.3283 13.0352 42.1597 12.6969 41.991 12.5277C41.8224 12.1894 41.1479 10.667 41.1479 10.667C41.1479 10.667 38.281 14.0501 38.1124 14.0501C37.6064 14.3884 36.9319 14.0501 37.1005 13.5427C37.1005 13.0352 38.6183 6.43818 38.6183 6.43818C38.6183 6.43818 36.9319 7.45311 36.426 7.62226C36.0887 7.96057 35.7514 7.96057 35.4141 7.28395C35.4141 6.77649 33.3905 2.88595 33.3905 2.88595ZM16.6952 33.5028V0.348633H0V33.5028H16.6952Z" fill="#FF0000"/>
<path d="M107.885 13.8706H106.367L106.03 12.3483C104.681 13.8706 103.669 14.209 101.983 14.209C97.9355 14.209 95.5746 10.995 95.5746 7.10448C95.4059 3.21393 97.7669 0 101.814 0C104.85 0 107.211 1.52239 107.548 4.56716H105.187C105.018 2.70647 103.332 1.8607 101.646 1.8607C98.7787 1.8607 97.5982 4.39801 97.5982 7.10448C97.5982 9.64179 98.7787 12.3483 101.646 12.3483C104.007 12.3483 105.356 10.995 105.524 8.62687H101.983V6.76617H107.885V13.8706ZM109.74 8.96517C109.74 5.9204 111.595 3.72139 114.631 3.72139C117.666 3.72139 119.521 5.9204 119.521 8.96517C119.521 12.01 117.666 14.209 114.631 14.209C111.595 14.209 109.74 12.01 109.74 8.96517ZM117.329 8.96517C117.329 7.27363 116.486 5.58209 114.462 5.58209C112.438 5.58209 111.595 7.27363 111.595 8.96517C111.595 10.6567 112.438 12.5174 114.462 12.5174C116.486 12.5174 117.329 10.6567 117.329 8.96517ZM120.364 4.0597H122.725L125.255 11.6716L127.616 4.0597H129.808L126.435 13.8706H124.075L120.364 4.0597ZM132.844 9.47264C132.844 10.995 133.687 12.3483 135.542 12.3483C136.722 12.3483 137.566 11.8408 137.903 10.6567H139.927C139.421 12.8557 137.566 14.0398 135.542 14.0398C132.506 14.0398 130.82 11.8408 130.82 8.79602C130.82 5.9204 132.675 3.55224 135.542 3.55224C138.577 3.55224 140.601 6.42786 140.095 9.30348H132.844V9.47264ZM137.903 8.1194C137.903 6.76617 136.891 5.58209 135.373 5.58209C133.856 5.58209 132.844 6.76617 132.844 8.1194H137.903ZM141.782 4.0597H143.805V5.9204C143.974 4.90547 145.323 3.72139 146.672 3.72139C147.178 3.72139 147.347 3.72139 147.515 3.72139V5.75124C147.178 5.75124 146.841 5.58209 146.503 5.58209C144.986 5.58209 143.805 6.76617 143.805 8.96517V13.7015H141.613V4.0597H141.782ZM148.864 4.0597H150.888V5.58209C151.563 4.56716 152.574 3.89055 153.924 3.89055C156.116 3.89055 157.465 5.07463 157.465 7.27363V14.0398H155.273V7.78109C155.273 6.25871 154.598 5.58209 153.418 5.58209C151.9 5.58209 151.057 6.76617 151.057 8.1194V13.8706H148.864V4.0597ZM159.657 4.0597H161.681V5.41293C162.355 4.39801 163.199 3.72139 164.716 3.72139C165.897 3.72139 167.077 4.22886 167.415 5.41293C168.089 4.39801 169.101 3.72139 170.45 3.72139C172.474 3.72139 173.654 4.56716 173.654 7.10448V13.8706H171.462V8.1194C171.462 6.59702 171.293 5.41293 169.607 5.41293C168.089 5.41293 167.583 6.42786 167.583 8.1194V13.8706H165.391V7.61194C165.391 6.25871 165.054 5.58209 163.705 5.58209C162.524 5.58209 161.512 6.42786 161.512 8.1194V14.0398H159.32V4.0597H159.657ZM177.87 9.47264C177.87 10.995 178.713 12.3483 180.568 12.3483C181.749 12.3483 182.592 11.8408 182.929 10.6567H184.953C184.447 12.8557 182.592 14.0398 180.568 14.0398C177.533 14.0398 175.847 11.8408 175.847 8.79602C175.847 5.9204 177.702 3.55224 180.568 3.55224C183.604 3.55224 185.628 6.42786 185.122 9.30348H177.87V9.47264ZM182.929 8.1194C182.929 6.76617 181.918 5.58209 180.4 5.58209C178.882 5.58209 177.87 6.76617 177.87 8.1194H182.929ZM186.808 4.0597H188.832V5.58209C189.506 4.56716 190.518 3.89055 191.867 3.89055C194.06 3.89055 195.409 5.07463 195.409 7.27363V14.0398H193.216V7.78109C193.216 6.25871 192.542 5.58209 191.361 5.58209C189.844 5.58209 189 6.76617 189 8.1194V13.8706H186.808V4.0597ZM196.758 4.0597H198.444V1.18408H200.636V4.0597H202.66V5.75124H200.636V10.995C200.636 11.8408 200.636 12.3483 201.648 12.3483C201.986 12.3483 202.323 12.3483 202.492 12.3483V14.0398C201.986 14.0398 201.48 14.209 201.142 14.209C198.95 14.209 198.444 13.3632 198.444 11.6716V5.75124H196.758V4.0597ZM95.2373 28.5871C95.2373 25.5423 97.0923 23.3433 100.128 23.3433C103.332 23.3433 105.018 25.5423 105.018 28.5871C105.018 31.6318 103.163 33.8308 100.128 33.8308C97.0923 33.8308 95.2373 31.6318 95.2373 28.5871ZM102.995 28.5871C102.995 26.8955 102.151 25.204 100.128 25.204C98.2728 25.204 97.261 26.8955 97.261 28.5871C97.261 30.2786 98.1042 32.1393 100.128 32.1393C102.151 32.1393 102.995 30.2786 102.995 28.5871ZM106.03 23.6816H107.717V22.8358C107.717 20.2985 109.066 19.9602 110.415 19.9602C111.089 19.9602 111.595 19.9602 111.933 20.1294V21.8209C111.595 21.8209 111.427 21.6517 110.921 21.6517C110.415 21.6517 109.909 21.8209 109.909 22.6667V23.6816H111.764V25.3731H109.909V33.6617H107.717V25.3731H106.03V23.6816ZM127.616 24.1891C127.279 22.6667 126.267 21.4826 124.243 21.4826C121.376 21.4826 120.196 24.0199 120.196 26.7264C120.196 29.2637 121.376 31.9701 124.243 31.9701C126.267 31.9701 127.447 30.4478 127.616 28.4179H129.977C129.808 31.6318 127.616 33.8308 124.243 33.8308C120.196 33.8308 117.835 30.6169 117.835 26.7264C117.835 22.8358 120.196 19.6219 124.243 19.6219C127.279 19.6219 129.64 21.3134 129.977 24.1891H127.616ZM140.095 31.2935C140.095 31.801 140.264 31.9701 140.601 31.9701C140.77 31.9701 140.938 31.9701 141.107 31.9701V33.4925C140.77 33.6617 140.095 33.6617 139.758 33.6617C138.915 33.6617 138.24 33.3234 138.072 32.4776C137.228 33.3234 135.879 33.6617 134.699 33.6617C133.012 33.6617 131.326 32.6468 131.326 30.7861C131.326 28.2488 133.35 27.9104 135.036 27.7413C136.554 27.403 137.903 27.5721 137.903 26.3881C137.903 25.204 136.722 25.0348 135.879 25.0348C134.699 25.0348 133.856 25.5423 133.687 26.5572H131.495C131.663 24.0199 133.856 23.3433 135.879 23.3433C137.734 23.3433 139.758 24.1891 139.758 26.2189V31.2935H140.095ZM138.072 28.5871C137.397 29.0945 136.385 28.9254 135.373 29.0945C134.361 29.2637 133.687 29.602 133.687 30.7861C133.687 31.801 134.867 31.9701 135.711 31.9701C136.722 31.9701 138.072 31.4627 138.072 30.1095V28.5871ZM142.456 23.6816H144.48V25.204C145.154 24.1891 146.166 23.5124 147.515 23.5124C149.708 23.5124 151.057 24.6965 151.057 26.8955V33.6617H148.864V27.403C148.864 25.8806 148.19 25.204 147.009 25.204C145.492 25.204 144.648 26.3881 144.648 27.7413V33.4925H142.456V23.6816ZM161.344 31.2935C161.344 31.801 161.512 31.9701 161.85 31.9701C162.018 31.9701 162.187 31.9701 162.356 31.9701V33.4925C162.018 33.6617 161.344 33.6617 161.006 33.6617C160.163 33.6617 159.489 33.3234 159.32 32.4776C158.477 33.3234 157.128 33.6617 155.947 33.6617C154.261 33.6617 152.574 32.6468 152.574 30.7861C152.574 28.2488 154.598 27.9104 156.285 27.7413C157.802 27.403 159.151 27.5721 159.151 26.3881C159.151 25.204 157.971 25.0348 157.128 25.0348C155.947 25.0348 155.104 25.5423 154.935 26.5572H152.743C152.912 24.0199 155.104 23.3433 157.128 23.3433C158.983 23.3433 161.006 24.1891 161.006 26.2189V31.2935H161.344ZM159.151 28.5871C158.477 29.0945 157.465 28.9254 156.453 29.0945C155.441 29.2637 154.767 29.602 154.767 30.7861C154.767 31.801 155.947 31.9701 156.79 31.9701C157.802 31.9701 159.151 31.4627 159.151 30.1095V28.5871ZM172.811 33.4925H170.787V32.1393C170.282 33.3234 168.932 33.6617 167.752 33.6617C164.716 33.6617 163.199 31.2935 163.199 28.4179C163.199 24.8657 165.391 23.3433 167.415 23.3433C168.595 23.3433 169.944 23.8507 170.619 24.8657V19.791H172.811V33.4925ZM168.089 32.1393C169.944 32.1393 170.787 30.4478 170.787 28.5871C170.787 26.3881 169.776 25.204 168.089 25.204C166.066 25.204 165.391 27.0647 165.391 28.7562C165.391 30.4478 166.234 32.1393 168.089 32.1393ZM183.435 31.2935C183.435 31.801 183.604 31.9701 183.941 31.9701C184.11 31.9701 184.279 31.9701 184.447 31.9701V33.4925C184.11 33.6617 183.435 33.6617 183.098 33.6617C182.255 33.6617 181.58 33.3234 181.412 32.4776C180.568 33.3234 179.219 33.6617 178.039 33.6617C176.353 33.6617 174.666 32.6468 174.666 30.7861C174.666 28.2488 176.69 27.9104 178.376 27.7413C179.894 27.403 181.243 27.5721 181.243 26.3881C181.243 25.204 180.063 25.0348 179.219 25.0348C178.039 25.0348 177.196 25.5423 177.027 26.5572H174.835C175.003 24.0199 177.196 23.3433 179.219 23.3433C181.074 23.3433 183.098 24.1891 183.098 26.2189V31.2935H183.435ZM181.243 28.5871C180.568 29.0945 179.557 28.9254 178.545 29.0945C177.533 29.2637 176.858 29.602 176.858 30.7861C176.858 31.801 178.039 31.9701 178.882 31.9701C179.894 31.9701 181.243 31.4627 181.243 30.1095V28.5871ZM244.314 13.8706H242.796L242.459 12.3483C241.11 13.8706 240.098 14.209 238.412 14.209C234.364 14.209 232.003 10.995 232.003 7.10448C232.003 3.21393 234.364 0 238.412 0C241.447 0 243.808 1.52239 244.145 4.56716H241.784C241.616 2.70647 239.929 1.8607 238.243 1.8607C235.376 1.8607 234.196 4.39801 234.196 7.10448C234.196 9.64179 235.376 12.3483 238.243 12.3483C240.604 12.3483 241.953 10.995 242.122 8.62687H238.58V6.76617H244.314V13.8706ZM246.338 8.96517C246.338 5.9204 248.193 3.72139 251.228 3.72139C254.264 3.72139 256.119 5.9204 256.119 8.96517C256.119 12.01 254.264 14.209 251.228 14.209C248.193 14.209 246.338 12.01 246.338 8.96517ZM253.926 8.96517C253.926 7.27363 253.083 5.58209 251.059 5.58209C249.204 5.58209 248.193 7.27363 248.193 8.96517C248.193 10.6567 249.036 12.5174 251.059 12.5174C253.083 12.5174 253.926 10.6567 253.926 8.96517ZM266.574 13.8706H264.382V12.5174C263.876 13.5323 262.696 14.209 261.515 14.209C258.985 14.209 257.805 12.8557 257.805 10.3184V4.0597H259.997V10.1493C259.997 11.8408 260.672 12.5174 261.852 12.5174C263.707 12.5174 264.213 11.3333 264.213 9.81095V4.0597H266.406L266.574 13.8706ZM267.923 4.0597H270.284L272.814 11.6716L275.175 4.0597H277.367L273.826 13.8706H271.465L267.923 4.0597ZM280.065 9.47264C280.065 10.995 280.908 12.3483 282.764 12.3483C283.944 12.3483 284.787 11.8408 285.124 10.6567H287.148C286.642 12.8557 284.787 14.0398 282.764 14.0398C279.728 14.0398 278.042 11.8408 278.042 8.79602C278.042 5.9204 279.897 3.55224 282.764 3.55224C285.799 3.55224 287.823 6.42786 287.317 9.30348H280.065V9.47264ZM285.124 8.1194C285.124 6.76617 284.113 5.58209 282.595 5.58209C281.077 5.58209 280.065 6.76617 280.065 8.1194H285.124ZM289.003 4.0597H291.027V5.9204C291.195 4.90547 292.545 3.72139 293.894 3.72139C294.4 3.72139 294.568 3.72139 294.737 3.72139V5.75124C294.4 5.75124 294.062 5.58209 293.725 5.58209C292.207 5.58209 291.027 6.76617 291.027 8.96517V13.7015H288.835L289.003 4.0597ZM295.749 4.0597H297.772V5.58209C298.447 4.56716 299.459 3.89055 300.808 3.89055C303 3.89055 304.349 5.07463 304.349 7.27363V14.0398H302.157V7.78109C302.157 6.25871 301.482 5.58209 300.302 5.58209C298.784 5.58209 297.941 6.76617 297.941 8.1194V13.8706H295.749V4.0597ZM308.397 9.47264C308.397 10.995 309.24 12.3483 311.095 12.3483C312.275 12.3483 313.118 11.8408 313.456 10.6567H315.479C314.974 12.8557 313.118 14.0398 311.095 14.0398C308.059 14.0398 306.373 11.8408 306.373 8.79602C306.373 5.9204 308.228 3.55224 311.095 3.55224C314.13 3.55224 316.154 6.42786 315.648 9.30348H308.397V9.47264ZM313.456 8.1194C313.456 6.76617 312.444 5.58209 310.926 5.58209C309.408 5.58209 308.397 6.76617 308.397 8.1194H313.456ZM317.166 4.0597H319.189V5.41293C319.864 4.39801 320.707 3.72139 322.225 3.72139C323.405 3.72139 324.586 4.22886 324.923 5.41293C325.598 4.39801 326.61 3.72139 327.959 3.72139C329.982 3.72139 331.163 4.56716 331.163 7.10448V13.8706H328.971V8.1194C328.971 6.59702 328.802 5.41293 327.115 5.41293C325.598 5.41293 325.092 6.42786 325.092 8.1194V13.8706H322.9V7.61194C322.9 6.25871 322.562 5.58209 321.213 5.58209C320.033 5.58209 319.021 6.42786 319.021 8.1194V14.0398H316.829V4.0597H317.166ZM335.379 9.47264C335.379 10.995 336.222 12.3483 338.077 12.3483C339.257 12.3483 340.101 11.8408 340.438 10.6567H342.462C341.956 12.8557 340.101 14.0398 338.077 14.0398C335.042 14.0398 333.355 11.8408 333.355 8.79602C333.355 5.9204 335.21 3.55224 338.077 3.55224C341.113 3.55224 343.136 6.42786 342.63 9.30348H335.379V9.47264ZM340.438 8.1194C340.438 6.76617 339.426 5.58209 337.908 5.58209C336.391 5.58209 335.379 6.76617 335.379 8.1194H340.438ZM344.317 4.0597H346.34V5.58209C347.015 4.56716 348.027 3.89055 349.376 3.89055C351.568 3.89055 352.917 5.07463 352.917 7.27363V14.0398H350.725V7.78109C350.725 6.25871 350.05 5.58209 348.87 5.58209C347.352 5.58209 346.509 6.76617 346.509 8.1194V13.8706H344.317V4.0597ZM354.098 4.0597H355.784V1.18408H357.976V4.0597H360V5.75124H357.976V10.995C357.976 11.8408 357.976 12.3483 358.988 12.3483C359.325 12.3483 359.663 12.3483 359.831 12.3483V14.0398C359.325 14.0398 358.82 14.209 358.482 14.209C356.29 14.209 355.784 13.3632 355.784 11.6716V5.75124H354.098V4.0597ZM241.447 33.4925H239.423V32.1393C238.917 33.3234 237.568 33.6617 236.388 33.6617C233.352 33.6617 231.835 31.2935 231.835 28.4179C231.835 24.8657 233.858 23.3433 236.051 23.3433C237.231 23.3433 238.58 23.8507 239.255 24.8657V19.791H241.447V33.4925ZM236.557 32.1393C238.412 32.1393 239.255 30.4478 239.255 28.5871C239.255 26.3881 238.243 25.204 236.557 25.204C234.533 25.204 233.858 27.0647 233.858 28.7562C233.858 30.4478 234.702 32.1393 236.557 32.1393ZM252.409 33.4925H250.216V32.1393C249.71 33.1542 248.53 33.8308 247.349 33.8308C244.82 33.8308 243.639 32.4776 243.639 29.9403V23.6816H245.832V29.7711C245.832 31.4627 246.506 32.1393 247.687 32.1393C249.542 32.1393 250.048 30.9552 250.048 29.4328V23.6816H252.24V33.4925H252.409ZM269.441 24.1891C269.104 22.6667 268.092 21.4826 266.068 21.4826C263.201 21.4826 262.021 24.0199 262.021 26.7264C262.021 29.2637 263.201 31.9701 266.068 31.9701C268.261 31.9701 269.272 30.4478 269.441 28.4179H271.802C271.633 31.6318 269.272 34 266.068 34C262.021 34 259.66 30.7861 259.66 26.8955C259.66 23.005 262.021 19.791 266.068 19.791C269.104 19.791 271.465 21.4826 271.802 24.3582H269.441V24.1891ZM281.752 31.2935C281.752 31.801 281.92 31.9701 282.258 31.9701C282.426 31.9701 282.595 31.9701 282.764 31.9701V33.4925C282.426 33.6617 281.752 33.6617 281.414 33.6617C280.571 33.6617 279.897 33.3234 279.728 32.4776C278.885 33.3234 277.536 33.6617 276.355 33.6617C274.669 33.6617 272.982 32.6468 272.982 30.7861C272.982 28.2488 275.006 27.9104 276.693 27.7413C278.21 27.403 279.559 27.5721 279.559 26.3881C279.559 25.204 278.379 25.0348 277.536 25.0348C276.355 25.0348 275.512 25.5423 275.343 26.5572H273.151C273.32 24.0199 275.512 23.3433 277.536 23.3433C279.391 23.3433 281.414 24.1891 281.414 26.2189V31.2935H281.752ZM279.559 28.5871C278.885 29.0945 277.873 28.9254 276.861 29.0945C275.849 29.2637 275.175 29.602 275.175 30.7861C275.175 31.801 276.355 31.9701 277.198 31.9701C278.21 31.9701 279.559 31.4627 279.559 30.1095V28.5871ZM284.281 23.6816H286.305V25.204C286.979 24.1891 287.991 23.5124 289.34 23.5124C291.533 23.5124 292.882 24.6965 292.882 26.8955V33.6617H290.69V27.403C290.69 25.8806 290.015 25.204 288.835 25.204C287.317 25.204 286.474 26.3881 286.474 27.7413V33.4925H284.281V23.6816ZM303 31.2935C303 31.801 303.169 31.9701 303.506 31.9701C303.675 31.9701 303.843 31.9701 304.012 31.9701V33.4925C303.675 33.6617 303 33.6617 302.663 33.6617C301.82 33.6617 301.145 33.3234 300.977 32.4776C300.133 33.3234 298.784 33.6617 297.604 33.6617C295.917 33.6617 294.231 32.6468 294.231 30.7861C294.231 28.2488 296.255 27.9104 297.941 27.7413C299.459 27.403 300.808 27.5721 300.808 26.3881C300.808 25.204 299.627 25.0348 298.784 25.0348C297.604 25.0348 296.761 25.5423 296.592 26.5572H294.4C294.568 24.0199 296.761 23.3433 298.784 23.3433C300.639 23.3433 302.663 24.1891 302.663 26.2189V31.2935H303ZM300.808 28.5871C300.133 29.0945 299.121 28.9254 298.11 29.0945C297.098 29.2637 296.423 29.602 296.423 30.7861C296.423 31.801 297.604 31.9701 298.447 31.9701C299.459 31.9701 300.808 31.4627 300.808 30.1095V28.5871ZM314.636 33.4925H312.613V32.1393C312.107 33.3234 310.758 33.6617 309.577 33.6617C306.542 33.6617 305.024 31.2935 305.024 28.4179C305.024 24.8657 307.216 23.3433 309.24 23.3433C310.42 23.3433 311.769 23.8507 312.444 24.8657V19.791H314.636V33.4925ZM309.746 32.1393C311.601 32.1393 312.444 30.4478 312.444 28.5871C312.444 26.3881 311.432 25.204 309.746 25.204C307.722 25.204 307.048 27.0647 307.048 28.7562C307.048 30.4478 307.891 32.1393 309.746 32.1393ZM325.092 31.2935C325.092 31.801 325.26 31.9701 325.598 31.9701C325.766 31.9701 325.935 31.9701 326.104 31.9701V33.4925C325.766 33.6617 325.092 33.6617 324.755 33.6617C323.911 33.6617 323.237 33.3234 323.068 32.4776C322.225 33.3234 320.876 33.6617 319.695 33.6617C318.009 33.6617 316.323 32.6468 316.323 30.7861C316.323 28.2488 318.346 27.9104 320.033 27.7413C321.55 27.403 322.9 27.5721 322.9 26.3881C322.9 25.204 321.719 25.0348 320.876 25.0348C319.695 25.0348 318.852 25.5423 318.684 26.5572H316.491C316.66 24.0199 318.852 23.3433 320.876 23.3433C322.731 23.3433 324.755 24.1891 324.755 26.2189V31.2935H325.092ZM322.9 28.5871C322.225 29.0945 321.213 28.9254 320.201 29.0945C319.189 29.2637 318.515 29.602 318.515 30.7861C318.515 31.801 319.695 31.9701 320.539 31.9701C321.55 31.9701 322.9 31.4627 322.9 30.1095V28.5871Z" fill="black"/>
</svg>
