<svg xmlns="http://www.w3.org/2000/svg" width="25" height="25" fill="none"><path d="M12.5 0C5.597 0 0 5.599 0 12.5 0 19.405 5.597 25 12.5 25S25 19.405 25 12.5C25 5.599 19.403 0 12.5 0Zm0 5.544a2.117 2.117 0 1 1 0 4.234 2.117 2.117 0 0 1 0-4.234Zm2.823 12.803c0 .334-.271.605-.605.605h-4.436a.605.605 0 0 1-.605-.605v-1.21c0-.334.271-.605.605-.605h.605v-3.226h-.605a.605.605 0 0 1-.605-.604v-1.21c0-.334.271-.605.605-.605h3.226c.334 0 .605.27.605.605v5.04h.605c.334 0 .605.271.605.605v1.21Z" fill="#000"/></svg>