<?xml version="1.0" encoding="utf-8"?>
<!-- Generator: Adobe Illustrator 27.8.0, SVG Export Plug-In . SVG Version: 6.00 Build 0)  -->
<svg version="1.1" id="Layer_1" xmlns="http://www.w3.org/2000/svg" xmlns:xlink="http://www.w3.org/1999/xlink" x="0px" y="0px"
	 viewBox="0 0 19 19" style="enable-background:new 0 0 19 19;" xml:space="preserve">
<style type="text/css">
	.st0{fill:#FFFFFF;}
</style>
<g id="Vector_00000014635046085828863380000004769959154681214619_">
	<path class="st0" d="M17.7,1.5c-0.5,0-0.9,0.4-0.9,0.9v2.3l-1.3-1.3c-1.6-1.6-3.7-2.5-6-2.5c-2.3,0-4.4,0.9-6,2.5
		c-0.9,0.9-1.6,2-2,3.2C1.3,7.1,1.6,7.6,2,7.8C2.5,8,3,7.7,3.2,7.3l0,0h0l0.2,0L3.2,7.2c0.3-1,0.9-1.8,1.6-2.5c1.3-1.3,2.9-2,4.7-2
		c1.8,0,3.4,0.7,4.7,2L15.5,6h-2.2c-0.5,0-0.9,0.4-0.9,0.9c0,0.5,0.4,0.9,0.9,0.9h4.4c0.5,0,0.9-0.4,0.9-0.9V2.4
		C18.6,1.9,18.2,1.5,17.7,1.5z M17,11.2c-0.2-0.1-0.5-0.1-0.7,0c-0.2,0.1-0.4,0.3-0.5,0.5c-0.3,1-0.9,1.8-1.6,2.5
		c-1.3,1.3-2.9,2-4.7,2c-1.8,0-3.5-0.7-4.7-2v0L3.5,13h2.2c0.5,0,0.9-0.4,0.9-0.9c0-0.5-0.4-0.9-0.9-0.9H1.3c0,0-0.1,0-0.1,0
		c0,0-0.1,0-0.1,0h0c-0.1,0-0.3,0.1-0.4,0.2l0,0c-0.1,0.1-0.2,0.2-0.2,0.4c0,0,0,0.1,0,0.1c0,0.1,0,0.1,0,0.2v4.5
		c0,0.5,0.4,0.9,0.9,0.9c0.5,0,0.9-0.4,0.9-0.9v-2.3l1.3,1.3c1.6,1.6,3.8,2.5,6,2.5c0,0,0,0,0,0c2.3,0,4.4-0.9,6-2.5
		c0.9-0.9,1.6-2,2-3.2C17.7,11.9,17.4,11.4,17,11.2z"/>
</g>
</svg>
